<svg version="1.0" xmlns="http://www.w3.org/2000/svg" width="534.667" height="534.667" viewBox="0 0 401 401"><path d="M219 15.2c-1.5 3.7-14.2 29.5-18.4 37.2-3.7 7-4.5 7.8-7.5 7.2-8.5-1.7-35.2-2.4-42.8-1.2-1.5.3-4.8.7-7.3 1.1-9.9 1.3-19.8 3.7-30 7.2-8.8 3-26.1 11.2-31.4 14.8-2 1.4-3.9 2.5-4.1 2.5-.9 0-11 7.4-17 12.4-16.9 14.2-33 34.5-43 54.5-5.9 11.8-12.4 31.6-14 42.7-.3 2.1-.8 4.5-1 5.2-1.7 4.9-2.3 28.5-1.1 42.9 2.8 35.4 21.2 74.9 45.5 98.1 24.5 23.4 47 36.9 74.1 44.5 10.4 3 11.5 3.2 20.8 4.7 8 1.3 45.9 1.2 52.7-.1 2.8-.6 6.1-1.2 7.4-1.5 23.6-4.8 49.5-17.1 69.6-33.3 10.7-8.6 18.8-17 30.9-32.1 9.4-11.9 23.1-41.8 26.7-58.3.7-3.2 1.7-6.1 2.2-6.4.8-.5 4.3-1.3 19.7-4.8 4.7-1 18.3-6.1 24.4-9.1 10-4.8 17.3-11 21.6-18.2 3.5-5.7 3.7-6.7 3.9-14.9.2-9.2-1.2-15.1-5.9-24.3-2.4-4.9-11.6-18.4-15.9-23.4-7.3-8.6-29.7-30.1-42.7-41-6.5-5.4-5.6-2.3 1.4 4.6 4 4 8.4 9 9.8 11.1 12.6 18.7 9.3 34.9-10.4 50.5-3 2.3-5.8 4-6.2 3.7-.7-.4-2.3-7.3-2.1-9 .1-1.1-7-20.5-9.8-26.9-19.6-43.6-60-78.5-105.6-91.3-5.2-1.5-9.5-3.1-9.5-3.6s4.1-11.2 9-23.9c5-12.6 9-23.4 9-23.9 0-2.1-1.8-.7-3 2.3zm164.5 156.6c7.3 10.2 10.6 16 13.5 24.2 9.5 26.8-8.5 45.7-53.5 56-4.9 1.2-9.9 2.4-10.9 2.7-1.4.4-1.8.1-1.3-1 2.3-5.9 2.9-45.3.8-53.7-1-4.1-.9-4.6 1.2-6.3 13.2-10.8 17.7-15.6 21.1-23.1 4.2-8.9 3.4-20.1-1.9-29.3-1.4-2.3-2.5-4.5-2.5-4.9 0-1.8 28 27.8 33.5 35.4z"/></svg>